Happy Feet Two 3D (2011) 1080p AC3+DTS Eng NL Subs Half-SBS
.
Incl: 3D EngLish FHI, English Normal, Dutch. All made in slow speed HQ 16:9 Output
.
[IMG]http://img857.imageshack.us/img857/1016/hf3ds.jpg[/IMG]
.
AustraliÙ
Animatie / Familie
100 minuten

geregisseerd door George Miller (II)
met de stemmen van Elijah Wood, Pink en Elizabeth Daily

Mumble (Elijah Wood), de meester van de tapdance, heeft een probleem. Zijn kleine zoon Erik is bang om te dansen. Hij loopt weg van huis en ontmoet de machtige Sven, een pingu´n die kan vliegen! Mumble heeft weinig hoop om enige concurrentie te bieden aan dit machtige voorbeeldfiguur, maar het wordt allemaal nog erger wanneer de wereld opgeschud wordt door onvoorziene invloedrijke krachten. Erik krijgt de verhalen van zijn vaders moed te horen en brengt de pingu´n-natie en allerlei andere prachtige schepselen samen om alles weer recht te zetten.

Momenteel te zien in 6 bioscopen
Vanaf 10 april te huur
Vanaf 4 april te koop op DVD en Blu-Ray
. 
http://www.moviemeter.nl/film/78417
.
PLOT
.
Mumble's son, Erik, is struggling to realize his talents in the Emperor Penguin world. Meanwhile, Mumble and his family and friends discover a new threat their home -- one that will take everyone working together to save them. 
. 
http://www.imdb.com/title/tt1402488/
.
Info: 
.
Vertaling: SRT-TEAM
.
Format                           : Matroska
Format version                   : Version 2
File size                        : 8.40 GiB
Duration                         : 1h 39mn
Overall bit rate                 : 12.1 Mbps
Movie name                       : Happy Feet 2 (2011) 3D Half-SBS
Encoded date                     : UTC 2012-02-27 23:24:22
Writing application              : mkvmerge v5.0.1 ('Es ist Sommer') built on Oct  9 2011 11:55:43
Writing library                  : libebml v1.2.2 + libmatroska v1.3.0

Video
ID                               : 1
Format                           : AVC
Format/Info                      : Advanced Video Codec
Format profile                   : High@L4.1
Format settings, CABAC           : Yes
Format settings, ReFrames        : 2 frames
Codec ID                         : V_MPEG4/ISO/AVC
Duration                         : 1h 39mn
Bit rate                         : 9 702 Kbps
Width                            : 1 920 pixels
Height                           : 1 080 pixels
Display aspect ratio             : 16:9
Frame rate                       : 23.976 fps
Color space                      : YUV
Chroma subsampling               : 4:2:0
Bit depth                        : 8 bits
Scan type                        : Progressive
Bits/(Pixel*Frame)               : 0.195
Stream size                      : 6.74 GiB (80%)
Writing library                  : x264 core
Default                          : Yes
Forced                           : No
Color primaries                  : BT.709-5, BT.1361, IEC 61966-2-4, SMPTE RP177
Transfer characteristics         : BT.709-5, BT.1361
Matrix coefficients              : BT.709-5, BT.1361, IEC 61966-2-4 709, SMPTE RP177

Audio #1
ID                               : 2
Format                           : DTS
Format/Info                      : Digital Theater Systems
Codec ID                         : A_DTS
Duration                         : 1h 39mn
Bit rate mode                    : Constant
Bit rate                         : 1 510 Kbps
Channel(s)                       : 6 channels
Channel positions                : Front: L C R, Side: L R, LFE
Sampling rate                    : 48.0 KHz
Bit depth                        : 16 bits
Compression mode                 : Lossy
Stream size                      : 1.05 GiB (12%)
Language                         : English
Default                          : Yes
Forced                           : No

Audio #2
ID                               : 3
Format                           : AC-3
Format/Info                      : Audio Coding 3
Mode extension                   : CM (complete main)
Codec ID                         : A_AC3
Duration                         : 1h 39mn
Bit rate mode                    : Constant
Bit rate                         : 640 Kbps
Channel(s)                       : 6 channels
Channel positions                : Front: L C R, Side: L R, LFE
Sampling rate                    : 48.0 KHz
Bit depth                        : 16 bits
Compression mode                 : Lossy
Stream size                      : 455 MiB (5%)
Language                         : English
Default                          : No
Forced                           : No

Menu
00:00:00.000                     : en:(01)00:00:00:000
00:11:01.577                     : en:(02)00:11:01:577
00:19:03.183                     : en:(03)00:19:03:183
00:29:16.755                     : en:(04)00:29:16:755
00:39:12.350                     : en:(05)00:39:12:350
00:49:39.726                     : en:(06)00:49:39:726
00:58:26.461                     : en:(07)00:58:26:461
01:09:52.104                     : en:(08)01:09:52:104
01:19:59.920                     : en:(09)01:19:59:920
01:30:29.924                     : en:(10)01:30:29:924
01:39:29.755                     : en:(11)01:39:29:755
.
Enjoy

Don't complain about the AC3 Audio, A lot of people can't play or the have problems with DTS.


